<svg width="100" height="100" viewBox="0 0 100 100" xmlns="http://www.w3.org/2000/svg">
  <!-- 外边框 -->
  <rect x="2" y="2" width="96" height="96" fill="none" stroke="#C89632" stroke-width="4" rx="8" ry="8" />
  
  <!-- 内边框 -->
  <rect x="6" y="6" width="88" height="88" fill="none" stroke="#FFFFFF" stroke-width="1" rx="6" ry="6" stroke-dasharray="5,3" />
  
  <!-- 角落装饰 - 左上 -->
  <path d="M2,12 C2,6 6,2 12,2 L2,2 Z" fill="#C89632" />
  <circle cx="12" cy="12" r="4" fill="#E8B64C" />
  
  <!-- 角落装饰 - 右上 -->
  <path d="M98,12 C98,6 94,2 88,2 L98,2 Z" fill="#C89632" />
  <circle cx="88" cy="12" r="4" fill="#E8B64C" />
  
  <!-- 角落装饰 - 左下 -->
  <path d="M2,88 C2,94 6,98 12,98 L2,98 Z" fill="#C89632" />
  <circle cx="12" cy="88" r="4" fill="#E8B64C" />
  
  <!-- 角落装饰 - 右下 -->
  <path d="M98,88 C98,94 94,98 88,98 L98,98 Z" fill="#C89632" />
  <circle cx="88" cy="88" r="4" fill="#E8B64C" />
  
  <!-- 栅栏装饰 -->
  <line x1="20" y1="2" x2="20" y2="10" stroke="#C89632" stroke-width="2" />
  <line x1="40" y1="2" x2="40" y2="10" stroke="#C89632" stroke-width="2" />
  <line x1="60" y1="2" x2="60" y2="10" stroke="#C89632" stroke-width="2" />
  <line x1="80" y1="2" x2="80" y2="10" stroke="#C89632" stroke-width="2" />
  
  <line x1="20" y1="90" x2="20" y2="98" stroke="#C89632" stroke-width="2" />
  <line x1="40" y1="90" x2="40" y2="98" stroke="#C89632" stroke-width="2" />
  <line x1="60" y1="90" x2="60" y2="98" stroke="#C89632" stroke-width="2" />
  <line x1="80" y1="90" x2="80" y2="98" stroke="#C89632" stroke-width="2" />
  
  <line x1="2" y1="20" x2="10" y2="20" stroke="#C89632" stroke-width="2" />
  <line x1="2" y1="40" x2="10" y2="40" stroke="#C89632" stroke-width="2" />
  <line x1="2" y1="60" x2="10" y2="60" stroke="#C89632" stroke-width="2" />
  <line x1="2" y1="80" x2="10" y2="80" stroke="#C89632" stroke-width="2" />
  
  <line x1="90" y1="20" x2="98" y2="20" stroke="#C89632" stroke-width="2" />
  <line x1="90" y1="40" x2="98" y2="40" stroke="#C89632" stroke-width="2" />
  <line x1="90" y1="60" x2="98" y2="60" stroke="#C89632" stroke-width="2" />
  <line x1="90" y1="80" x2="98" y2="80" stroke="#C89632" stroke-width="2" />
</svg>