<svg width="100" height="100" viewBox="0 0 100 100" xmlns="http://www.w3.org/2000/svg">
  <!-- 外边框 -->
  <rect x="2" y="2" width="96" height="96" fill="none" stroke="#969696" stroke-width="4" rx="8" ry="8" />
  
  <!-- 内边框 -->
  <rect x="6" y="6" width="88" height="88" fill="none" stroke="#FFFFFF" stroke-width="1" rx="6" ry="6" stroke-dasharray="5,3" />
  
  <!-- 角落装饰 - 左上 -->
  <path d="M2,12 C2,6 6,2 12,2 L2,2 Z" fill="#969696" />
  <circle cx="12" cy="12" r="4" fill="#C8C8C8" />
  
  <!-- 角落装饰 - 右上 -->
  <path d="M98,12 C98,6 94,2 88,2 L98,2 Z" fill="#969696" />
  <circle cx="88" cy="12" r="4" fill="#C8C8C8" />
  
  <!-- 角落装饰 - 左下 -->
  <path d="M2,88 C2,94 6,98 12,98 L2,98 Z" fill="#969696" />
  <circle cx="12" cy="88" r="4" fill="#C8C8C8" />
  
  <!-- 角落装饰 - 右下 -->
  <path d="M98,88 C98,94 94,98 88,98 L98,98 Z" fill="#969696" />
  <circle cx="88" cy="88" r="4" fill="#C8C8C8" />
  
  <!-- 点缀装饰 -->
  <circle cx="50" cy="2" r="2" fill="#C8C8C8" />
  <circle cx="50" cy="98" r="2" fill="#C8C8C8" />
  <circle cx="2" cy="50" r="2" fill="#C8C8C8" />
  <circle cx="98" cy="50" r="2" fill="#C8C8C8" />
  
  <!-- 边框点缀 -->
  <line x1="25" y1="2" x2="35" y2="2" stroke="#C8C8C8" stroke-width="2" />
  <line x1="65" y1="2" x2="75" y2="2" stroke="#C8C8C8" stroke-width="2" />
  <line x1="25" y1="98" x2="35" y2="98" stroke="#C8C8C8" stroke-width="2" />
  <line x1="65" y1="98" x2="75" y2="98" stroke="#C8C8C8" stroke-width="2" />
  <line x1="2" y1="25" x2="2" y2="35" stroke="#C8C8C8" stroke-width="2" />
  <line x1="2" y1="65" x2="2" y2="75" stroke="#C8C8C8" stroke-width="2" />
  <line x1="98" y1="25" x2="98" y2="35" stroke="#C8C8C8" stroke-width="2" />
  <line x1="98" y1="65" x2="98" y2="75" stroke="#C8C8C8" stroke-width="2" />
</svg>