<svg width="100" height="100" viewBox="0 0 100 100" xmlns="http://www.w3.org/2000/svg">
  <!-- 外边框 -->
  <rect x="2" y="2" width="96" height="96" fill="none" stroke="#0064C8" stroke-width="4" rx="8" ry="8" />
  
  <!-- 内边框 -->
  <rect x="6" y="6" width="88" height="88" fill="none" stroke="#FFFFFF" stroke-width="1" rx="6" ry="6" stroke-dasharray="5,3" />
  
  <!-- 角落装饰 - 左上 -->
  <path d="M2,12 C2,6 6,2 12,2 L2,2 Z" fill="#0064C8" />
  <circle cx="12" cy="12" r="4" fill="#00A0FF" />
  
  <!-- 角落装饰 - 右上 -->
  <path d="M98,12 C98,6 94,2 88,2 L98,2 Z" fill="#0064C8" />
  <circle cx="88" cy="12" r="4" fill="#00A0FF" />
  
  <!-- 角落装饰 - 左下 -->
  <path d="M2,88 C2,94 6,98 12,98 L2,98 Z" fill="#0064C8" />
  <circle cx="12" cy="88" r="4" fill="#00A0FF" />
  
  <!-- 角落装饰 - 右下 -->
  <path d="M98,88 C98,94 94,98 88,98 L98,98 Z" fill="#0064C8" />
  <circle cx="88" cy="88" r="4" fill="#00A0FF" />
  
  <!-- 屋顶装饰 -->
  <path d="M30,2 L50,12 L70,2" stroke="#0064C8" stroke-width="3" fill="none" />
  <path d="M30,98 L50,88 L70,98" stroke="#0064C8" stroke-width="3" fill="none" />
  <path d="M2,30 L12,50 L2,70" stroke="#0064C8" stroke-width="3" fill="none" />
  <path d="M98,30 L88,50 L98,70" stroke="#0064C8" stroke-width="3" fill="none" />
  
  <!-- 窗户装饰 -->
  <rect x="40" y="2" width="20" height="6" fill="#00A0FF" opacity="0.6" rx="2" ry="2" />
  <rect x="40" y="92" width="20" height="6" fill="#00A0FF" opacity="0.6" rx="2" ry="2" />
  <rect x="2" y="40" width="6" height="20" fill="#00A0FF" opacity="0.6" rx="2" ry="2" />
  <rect x="92" y="40" width="6" height="20" fill="#00A0FF" opacity="0.6" rx="2" ry="2" />
</svg>