<svg width="100" height="100" viewBox="0 0 100 100" xmlns="http://www.w3.org/2000/svg">
  <!-- 外边框 -->
  <rect x="2" y="2" width="96" height="96" fill="none" stroke="#00C800" stroke-width="4" rx="8" ry="8" />
  
  <!-- 内边框 -->
  <rect x="6" y="6" width="88" height="88" fill="none" stroke="#FFFFFF" stroke-width="1" rx="6" ry="6" stroke-dasharray="5,3" />
  
  <!-- 角落装饰 - 左上 -->
  <path d="M2,12 C2,6 6,2 12,2 L2,2 Z" fill="#00C800" />
  <circle cx="12" cy="12" r="4" fill="#00FF00" />
  
  <!-- 角落装饰 - 右上 -->
  <path d="M98,12 C98,6 94,2 88,2 L98,2 Z" fill="#00C800" />
  <circle cx="88" cy="12" r="4" fill="#00FF00" />
  
  <!-- 角落装饰 - 左下 -->
  <path d="M2,88 C2,94 6,98 12,98 L2,98 Z" fill="#00C800" />
  <circle cx="12" cy="88" r="4" fill="#00FF00" />
  
  <!-- 角落装饰 - 右下 -->
  <path d="M98,88 C98,94 94,98 88,98 L98,98 Z" fill="#00C800" />
  <circle cx="88" cy="88" r="4" fill="#00FF00" />
  
  <!-- 叶子装饰 -->
  <path d="M50,2 C52,6 54,2 56,6 C58,2 60,6 62,2" stroke="#00C800" stroke-width="2" fill="none" />
  <path d="M50,98 C52,94 54,98 56,94 C58,98 60,94 62,98" stroke="#00C800" stroke-width="2" fill="none" />
  <path d="M2,50 C6,52 2,54 6,56 C2,58 6,60 2,62" stroke="#00C800" stroke-width="2" fill="none" />
  <path d="M98,50 C94,52 98,54 94,56 C98,58 94,60 98,62" stroke="#00C800" stroke-width="2" fill="none" />
</svg>