<?xml version="1.0" encoding="UTF-8" standalone="no"?>
<svg width="256" height="256" viewBox="0 0 256 256" xmlns="http://www.w3.org/2000/svg">
  <!-- 背景 -->
  <rect width="256" height="256" fill="none"/>
  
  <!-- 房屋主体 -->
  <rect x="48" y="96" width="160" height="112" fill="#f0d6a8" stroke="#8b5a2b" stroke-width="4"/>
  
  <!-- 屋顶 -->
  <polygon points="32,96 128,32 224,96" fill="#c25b3f" stroke="#5e2c17" stroke-width="4"/>
  <rect x="48" y="96" width="160" height="16" fill="#a04830" stroke="#5e2c17" stroke-width="2"/>
  
  <!-- 烟囱 -->
  <rect x="64" y="48" width="24" height="32" fill="#8b5a2b" stroke="#5e2c17" stroke-width="2"/>
  <rect x="64" y="40" width="24" height="8" fill="#5e2c17" stroke="#5e2c17" stroke-width="2"/>
  
  <!-- 窗户 - 修改了位置和样式，避免看起来像眼睛 -->
  <rect x="64" y="112" width="32" height="24" fill="#87ceeb" stroke="#5e2c17" stroke-width="2"/>
  <line x1="64" y1="124" x2="96" y2="124" stroke="#5e2c17" stroke-width="2"/>
  <line x1="80" y1="112" x2="80" y2="136" stroke="#5e2c17" stroke-width="2"/>
  
  <rect x="160" y="112" width="32" height="24" fill="#87ceeb" stroke="#5e2c17" stroke-width="2"/>
  <line x1="160" y1="124" x2="192" y2="124" stroke="#5e2c17" stroke-width="2"/>
  <line x1="176" y1="112" x2="176" y2="136" stroke="#5e2c17" stroke-width="2"/>
  
  <!-- 门 - 修改了样式，避免看起来像嘴巴 -->
  <rect x="112" y="160" width="32" height="48" fill="#8b5a2b" stroke="#5e2c17" stroke-width="2"/>
  <rect x="124" y="184" width="8" height="8" fill="#f0d6a8"/>
  
  <!-- 像素风格纹理 -->
  <rect x="56" y="112" width="8" height="8" fill="#e0c698"/>
  <rect x="88" y="104" width="8" height="8" fill="#e0c698"/>
  <rect x="152" y="112" width="8" height="8" fill="#e0c698"/>
  <rect x="184" y="104" width="8" height="8" fill="#e0c698"/>
  <rect x="72" y="176" width="8" height="8" fill="#e0c698"/>
  <rect x="184" y="176" width="8" height="8" fill="#e0c698"/>
  <rect x="56" y="192" width="8" height="8" fill="#e0c698"/>
  <rect x="192" y="192" width="8" height="8" fill="#e0c698"/>
  
  <!-- 草地 -->
  <rect x="32" y="208" width="192" height="16" fill="#7caa2d"/>
  <rect x="40" y="208" width="8" height="8" fill="#5d8022"/>
  <rect x="72" y="208" width="8" height="8" fill="#5d8022"/>
  <rect x="120" y="208" width="8" height="8" fill="#5d8022"/>
  <rect x="168" y="208" width="8" height="8" fill="#5d8022"/>
  <rect x="200" y="208" width="8" height="8" fill="#5d8022"/>
</svg>